HIERARCHY
ROOT Pelvis
{
	OFFSET 0.000000 0.000000 0.000000
	CHANNELS 6 Xposition Yposition Zposition Xrotation Yrotation Zrotation
	JOINT LeftUpLeg_virtual
	{
		OFFSET 0.000000 0.000000 0.000000
		CHANNELS 3 Xrotation Yrotation Zrotation
		JOINT LeftUpLeg
		{
			OFFSET 18.735201 -5.666702 -4.541200
			CHANNELS 3 Xrotation Yrotation Zrotation
			JOINT LeftLeg
			{
				OFFSET -0.021200 -31.938179 0.493100
				CHANNELS 3 Xrotation Yrotation Zrotation
				JOINT LeftFoot
				{
					OFFSET 0.021200 -31.938179 -4.336299
					CHANNELS 3 Xrotation Yrotation Zrotation
					JOINT LeftToeBase
					{
						OFFSET 0.943001 -26.722000 15.023500
						CHANNELS 3 Xrotation Yrotation Zrotation
						End Site
						{
							OFFSET 0 0 0
						}
					}
				}
			}
		}
	}
	JOINT RightUpLeg_virtual
	{
		OFFSET 0.000000 0.000000 0.000000
		CHANNELS 3 Xrotation Yrotation Zrotation
		JOINT RightUpLeg
		{
			OFFSET -18.735201 -5.666702 -4.541200
			CHANNELS 3 Xrotation Yrotation Zrotation
			JOINT RightLeg
			{
				OFFSET 0.018946 -31.938133 0.493100
				CHANNELS 3 Xrotation Yrotation Zrotation
				JOINT RightFoot
				{
					OFFSET -0.018946 -31.938126 -4.336299
					CHANNELS 3 Xrotation Yrotation Zrotation
					JOINT RightToeBase
					{
						OFFSET -0.943001 -26.722004 15.023500
						CHANNELS 3 Xrotation Yrotation Zrotation
						End Site
						{
							OFFSET 0 0 0
						}
					}
				}
			}
		}
	}
	JOINT Hips_virtual
	{
		OFFSET 0.000000 0.000000 0.000000
		CHANNELS 3 Xrotation Yrotation Zrotation
		JOINT Hips
		{
			OFFSET -0.000000 -0.000000 -0.000000
			CHANNELS 3 Xrotation Yrotation Zrotation
			JOINT Spine
			{
				OFFSET 0.000000 10.199997 -0.299500
				CHANNELS 3 Xrotation Yrotation Zrotation
				JOINT Spine1
				{
					OFFSET 0.000000 11.900002 -1.516600
					CHANNELS 3 Xrotation Yrotation Zrotation
					JOINT Spine2
					{
						OFFSET 0.000000 13.600006 -2.842500
						CHANNELS 3 Xrotation Yrotation Zrotation
						JOINT Neck_virtual
						{
							OFFSET 0.000000 0.000000 0.000000
							CHANNELS 3 Xrotation Yrotation Zrotation
							JOINT Neck
							{
								OFFSET 0.000000 9.624100 -2.890100
								CHANNELS 3 Xrotation Yrotation Zrotation
								JOINT Head
								{
									OFFSET 0.000000 14.068802 -1.351900
									CHANNELS 3 Xrotation Yrotation Zrotation
									End Site
									{
										OFFSET 0 0 0
									}
								}
							}
						}
						JOINT LeftShoulder_virtual
						{
							OFFSET 0.000000 0.000000 0.000000
							CHANNELS 3 Xrotation Yrotation Zrotation
							JOINT LeftShoulder
							{
								OFFSET 15.263000 10.923401 -0.547700
								CHANNELS 3 Xrotation Yrotation Zrotation
								JOINT LeftArm
								{
									OFFSET 25.438599 -2.830597 -13.032500
									CHANNELS 3 Xrotation Yrotation Zrotation
									JOINT LeftForeArm
									{
										OFFSET 29.960503 0.000000 0.000000
										CHANNELS 3 Xrotation Yrotation Zrotation
										JOINT LeftHand
										{
											OFFSET 27.849251 0.000000 0.000000
											CHANNELS 3 Xrotation Yrotation Zrotation
											End Site
											{
												OFFSET 0 0 0
											}
										}
									}
								}
							}
						}
						JOINT RightShoulder_virtual
						{
							OFFSET 0.000000 0.000000 0.000000
							CHANNELS 3 Xrotation Yrotation Zrotation
							JOINT RightShoulder
							{
								OFFSET -15.263000 10.923401 -0.547700
								CHANNELS 3 Xrotation Yrotation Zrotation
								JOINT RightArm
								{
									OFFSET -25.438599 -2.830597 -13.032500
									CHANNELS 3 Xrotation Yrotation Zrotation
									JOINT RightForeArm
									{
										OFFSET -29.960503 0.000000 0.000000
										CHANNELS 3 Xrotation Yrotation Zrotation
										JOINT RightHand
										{
											OFFSET -27.849251 0.000000 0.000000
											CHANNELS 3 Xrotation Yrotation Zrotation
											End Site
											{
												OFFSET 0 0 0
											}
										}
									}
								}
							}
						}
					}
				}
			}
		}
	}
}
MOTION
Frames: 5
Frame Time: 0.03333333
-1.701182 93.711105 2.385727 0.000000 0.000000 0.000000 2.912643 -28.993303 1.190035 -19.101882 17.307508 13.859743 23.892707 12.122892 -1.504178 -6.535998 -3.224565 -8.274173 0.000000 0.000000 0.000000 2.912643 -28.993303 1.190035 -12.318255 -0.375496 -11.129998 16.866899 9.899558 0.864967 -8.231864 -1.387175 8.929601 0.000000 0.000000 0.000000 2.912643 -28.993303 1.190035 0.000000 0.000000 0.000000 7.835976 -0.359998 -2.682278 1.099248 -0.880573 2.383465 0.000000 0.000000 0.000000 1.108680 -0.590430 2.446366 -0.922893 3.567101 -1.380649 0.000000 0.000000 0.000000 1.108680 -0.590430 2.446366 -0.057079 -8.759453 -0.061262 -55.250766 0.329468 -41.449385 11.584429 -65.827341 13.005557 0.000000 0.000000 0.000000 1.108680 -0.590430 2.446366 4.849284 7.760152 5.560463 -0.933501 -2.176883 61.845628 11.299301 18.943453 -3.987587 0.000000 0.000000 0.000000 
-1.589584 93.670013 2.309864 0.000000 0.000000 0.000000 2.891752 -29.199933 1.227193 -19.204749 17.314979 13.793558 24.159738 12.088755 -1.525053 -6.656170 -3.005274 -8.204784 0.000000 0.000000 0.000000 2.891752 -29.199933 1.227193 -12.698829 -0.241928 -11.247372 17.268503 9.731342 0.848087 -8.242586 -1.049504 9.054823 0.000000 0.000000 0.000000 2.891752 -29.199933 1.227193 0.000000 0.000001 0.000000 8.054642 -0.317313 -2.570821 1.045025 -0.814359 2.320277 0.000000 0.000000 0.000000 1.051746 -0.537262 2.372766 -0.930190 3.562931 -1.412066 0.000000 0.000000 0.000000 1.051746 -0.537262 2.372766 -0.056869 -8.756181 -0.061015 -55.279098 0.492953 -41.432194 11.415522 -65.915792 12.820349 0.000000 0.000000 0.000000 1.051746 -0.537262 2.372766 4.899520 7.770208 4.883302 -2.486734 -5.619533 62.291769 11.240947 19.305415 -3.821078 0.000000 0.000000 0.000000 
-1.408728 93.559265 2.210861 0.000000 0.000000 0.000000 2.905241 -29.658092 1.402097 -19.349950 17.358246 13.560098 24.669197 12.015966 -1.509600 -6.946650 -2.470603 -8.134031 0.000000 0.000000 0.000000 2.905241 -29.658092 1.402097 -13.623916 0.088194 -11.557747 18.384742 9.203261 0.796643 -8.461397 -0.150189 9.333365 0.000000 0.000000 0.000000 2.905241 -29.658092 1.402097 0.000000 -0.000002 0.000000 8.505460 -0.262552 -2.375619 0.868402 -0.696429 2.129975 0.000000 0.000000 0.000000 0.870420 -0.455848 2.163773 -0.937218 3.579315 -1.470007 0.000000 0.000000 0.000000 0.870420 -0.455848 2.163773 -0.049762 -8.608671 -0.060883 -55.188000 0.666066 -41.372542 11.061004 -66.061952 12.423106 0.000000 0.000000 0.000000 0.870420 -0.455848 2.163773 4.926552 8.143911 4.272906 -3.433653 -9.791454 62.874248 10.500000 20.433542 -2.575338 0.000000 0.000000 0.000000 
-1.014273 93.253326 2.064854 0.000000 0.000000 0.000000 3.046556 -30.665989 1.818347 -19.882790 17.366437 13.130078 26.163002 12.411407 -1.480065 -7.815680 -1.788203 -8.140367 0.000000 0.000000 0.000000 3.046556 -30.665989 1.818347 -15.725054 0.723690 -12.153277 20.835490 10.926002 0.902493 -9.043191 -0.887784 9.231093 0.000000 0.000000 0.000000 3.046556 -30.665989 1.818347 0.000000 0.000000 0.000000 9.477290 -0.229050 -1.428062 0.523220 -0.455732 1.449048 0.000000 0.000000 0.000000 0.525952 -0.337827 1.442913 -1.034272 3.645525 -1.699200 0.000000 0.000000 0.000000 0.525952 -0.337827 1.442913 -0.037776 -8.420975 -0.060920 -54.622662 1.330437 -40.602804 9.694343 -66.760222 10.947843 0.000000 0.000000 0.000000 0.525952 -0.337827 1.442913 4.894754 8.134308 2.028110 -2.356100 -14.349254 65.757940 8.410254 23.219327 0.980605 0.000000 0.000000 0.000000 
-0.405434 92.773972 1.883102 0.000000 0.000000 0.000000 3.296370 -32.117510 2.333366 -20.876905 17.309532 12.703006 28.649488 13.339950 -1.508102 -9.226805 -1.155208 -8.233093 0.000000 0.000000 0.000000 3.296370 -32.117510 2.333366 -18.549634 1.533882 -12.938588 23.830381 11.857562 0.937697 -9.601281 -0.338298 9.526851 0.000000 0.000000 0.000000 3.296370 -32.117510 2.333366 0.000000 -0.000001 0.000000 10.880449 -0.231427 0.329856 0.179506 -0.130448 0.341486 0.000000 0.000000 0.000000 0.192468 -0.215172 0.281750 -1.188395 3.764665 -2.084304 0.000000 0.000000 0.000000 0.192468 -0.215172 0.281750 -0.014239 -8.383939 -0.055466 -53.194466 2.464966 -38.334467 5.665513 -68.305020 6.743416 0.000000 0.000000 0.000000 0.192468 -0.215172 0.281750 4.824988 7.222742 -2.127285 0.929661 -18.378514 71.645037 6.500288 27.064565 4.773346 0.000000 0.000000 0.000000 
